<?xml version="1.0" encoding="UTF-8" standalone="no"?>
<svg
   xmlns:dc="http://purl.org/dc/elements/1.1/"
   xmlns:cc="http://creativecommons.org/ns#"
   xmlns:rdf="http://www.w3.org/1999/02/22-rdf-syntax-ns#"
   xmlns:svg="http://www.w3.org/2000/svg"
   xmlns="http://www.w3.org/2000/svg"
   xmlns:sodipodi="http://sodipodi.sourceforge.net/DTD/sodipodi-0.dtd"
   xmlns:inkscape="http://www.inkscape.org/namespaces/inkscape"
   width="514.83789"
   height="579.10437"
   viewBox="0 0 514.83789 579.10437"
   fill="none"
   version="1.1"
   id="svg27"
   sodipodi:docname="back.svg"
   inkscape:version="1.0.2 (e86c870879, 2021-01-15)"
   inkscape:export-filename="/home/paul/Downloads/Logo.png"
   inkscape:export-xdpi="113.68"
   inkscape:export-ydpi="113.68">
  <defs
     id="defs8" />
  <metadata
     id="metadata31">
    <rdf:RDF>
      <cc:Work
         rdf:about="">
        <dc:format>image/svg+xml</dc:format>
        <dc:type
           rdf:resource="http://purl.org/dc/dcmitype/StillImage" />
      </cc:Work>
    </rdf:RDF>
  </metadata>
  <sodipodi:namedview
     pagecolor="#ffffff"
     bordercolor="#666666"
     borderopacity="1"
     objecttolerance="10"
     gridtolerance="10"
     guidetolerance="10"
     inkscape:pageopacity="0"
     inkscape:pageshadow="2"
     inkscape:window-width="1920"
     inkscape:window-height="1016"
     id="namedview29"
     showgrid="false"
     inkscape:zoom="0.70710678"
     inkscape:cx="15.011109"
     inkscape:cy="278.8682"
     inkscape:window-x="1920"
     inkscape:window-y="27"
     inkscape:window-maximized="1"
     inkscape:current-layer="g6"
     inkscape:document-rotation="0" />
  <g
     id="g6"
     transform="matrix(1.6383999,0,0,1.6383999,-240.84424,-208.07686)">
    <path
       fill-rule="evenodd"
       clip-rule="evenodd"
       d="m 174.146,395.651 c 4.845,-97.155 63.951,-257.379 274.932,-268.634 6.678,-0.356 12.361,4.94 12.148,11.624 -0.879,27.574 -5.38209,49.83011 -16.60009,83.71411 -22.375,0.3 -62.97241,21.17589 -68.80741,26.04489 h 62.9465 c -32.29,83.713 -104.24,166.091 -247.105,168.829 -13.892,23.643 -25.104,44.803 -32.317,59.578 -1.575,3.226 -5.467,4.565 -8.693,2.99 -3.226,-1.575 -4.565,-5.467 -2.99,-8.693 6.933,-14.201 17.431,-34.074 30.39,-56.353 24.15006,-37.14728 51.04398,-72.30043 78.181,-97.412 2.651,-2.42 2.838,-6.531 0.417,-9.182 -2.42,-2.651 -6.532,-2.838 -9.183,-0.418 -30.942,28.252 -54.612,58.762 -73.319,87.912 z"
       fill="#ffffff"
       id="path4"
       sodipodi:nodetypes="cccccccsscccccc"
       style="fill:#000000;fill-opacity:1" />
  </g>
</svg>
